<?xml version="1.0" encoding="UTF-8"?>
<!DOCTYPE svg PUBLIC "-//W3C//DTD SVG 1.1//EN" "http://www.w3.org/Graphics/SVG/1.1/DTD/svg11.dtd">
<!-- Creator: CorelDRAW -->
<svg xmlns="http://www.w3.org/2000/svg" xml:space="preserve" width="70mm" height="70mm" version="1.1" style="shape-rendering:geometricPrecision; text-rendering:geometricPrecision; image-rendering:optimizeQuality; fill-rule:evenodd; clip-rule:evenodd"
viewBox="0 0 70 70"
 xmlns:xlink="http://www.w3.org/1999/xlink"
 xmlns:xodm="http://www.corel.com/coreldraw/odm/2003">
 <defs>
  <style type="text/css">
   <![CDATA[
    .fil1 {fill:white}
    .fil0 {fill:url(#id0)}
   ]]>
  </style>
  <linearGradient id="id0" gradientUnits="userSpaceOnUse" x1="19.548" y1="34.5594" x2="69.948" y2="34.5594">
   <stop offset="0" style="stop-opacity:1; stop-color:#4217CB"/>
   <stop offset="1" style="stop-opacity:1; stop-color:#644BE4"/>
  </linearGradient>
 </defs>
 <g id="Capa_x0020_1">
  <metadata id="CorelCorpID_0Corel-Layer"/>
  <rect class="fil0" x="-0.052" y="0.0519" width="70" height="70" rx="13.6279" ry="9.3887"/>
  <g id="_1883985459840">
   <rect class="fil1" x="12.4937" y="40.9523" width="8.4323" height="10.4194" rx="0.89" ry="0.8935"/>
   <rect class="fil1" x="24.0035" y="29.3085" width="8.4323" height="22.0632" rx="0.89" ry="1.892"/>
   <rect class="fil1" x="35.5134" y="34.7133" width="8.4323" height="16.6584" rx="0.89" ry="1.4285"/>
   <rect class="fil1" x="47.2986" y="21.565" width="8.4323" height="29.8067" rx="0.89" ry="2.556"/>
   <path class="fil1" d="M28.139 19.0474c1.5611,0 2.8266,1.1943 2.8266,2.6675 0,0.1754 -0.0181,0.3467 -0.0523,0.5126l6.6996 2.8068c0.5178,-0.5499 1.2727,-0.8966 2.1136,-0.8966 0.3841,0 0.7502,0.0724 1.084,0.2033l7.9758 -8.8916c-0.2727,-0.4102 -0.4306,-0.8954 -0.4306,-1.4154 0,-1.4732 1.2655,-2.6675 2.8266,-2.6675 1.5612,0 2.8267,1.1943 2.8267,2.6675 0,1.4732 -1.2655,2.6674 -2.8267,2.6674 -0.384,0 -0.7501,-0.0723 -1.0838,-0.2033l-7.9759 8.8916c0.2727,0.4102 0.4305,0.8955 0.4305,1.4155 0,1.4732 -1.2654,2.6674 -2.8266,2.6674 -1.5611,0 -2.8266,-1.1942 -2.8266,-2.6674 0,-0.0987 0.0058,-0.1961 0.0169,-0.292l-6.8329 -2.8627c-0.5067,0.4536 -1.1913,0.7318 -1.9449,0.7318 -0.4509,0 -0.8771,-0.0998 -1.2553,-0.277l-7.6793 5.8402c0.1662,0.3397 0.2591,0.7179 0.2591,1.1167 0,1.4732 -1.2655,2.6674 -2.8266,2.6674 -1.5612,0 -2.8267,-1.1942 -2.8267,-2.6674 0,-1.4732 1.2655,-2.6675 2.8267,-2.6675 0.5112,0 0.9907,0.1281 1.4045,0.3521l7.6008 -5.7805c-0.2104,-0.3732 -0.3299,-0.7991 -0.3299,-1.2514 0,-1.4732 1.2656,-2.6675 2.8267,-2.6675z"/>
  </g>
  <path class="fil1" d="M7.1082 9.0273c0.1576,-0.1769 0.3246,-0.3641 0.5199,-0.6041 0.193,-0.2372 0.448,-0.5003 0.7173,-0.7578 0.3579,-0.342 0.7423,-0.6758 1.04,-0.9251 0.7694,-0.6434 1.6029,-1.2327 2.4727,-1.7605 0.9036,-0.5482 1.8402,-1.0264 2.7795,-1.427 0.8952,-0.3826 2.0082,-0.777 3.1281,-1.1064 1.0468,-0.3078 2.1006,-0.5597 2.9901,-0.6929 0.0896,-0.0136 0.1498,-0.0257 0.2094,-0.0377 0.248,-0.0498 0.505,-0.1013 0.7626,-0.0463 0.4529,0.0968 0.7762,0.3668 0.9559,0.7018l0 0.0014c0.1106,0.2063 0.1657,0.4374 0.1624,0.6672 -0.0033,0.2328 -0.0663,0.4656 -0.1915,0.6723 -0.195,0.3219 -0.5357,0.5774 -1.0297,0.6654l-1.7296 0.3442c-0.3463,0.0724 -0.8345,0.1964 -1.3121,0.3298 -0.4589,0.1283 -0.9076,0.2654 -1.2098,0.3746 -1.2408,0.4487 -2.4398,0.9519 -3.5759,1.5761 -1.1289,0.6202 -2.1961,1.3604 -3.1809,2.2868 -1.4058,1.3223 -2.498,2.7261 -3.3271,4.2584 -0.8299,1.5337 -1.3983,3.1994 -1.7557,5.0435 -0.078,0.4034 -0.1463,0.8636 -0.1935,1.3148 -0.0444,0.4249 -0.0708,0.8413 -0.0704,1.1945 0.0005,0.4979 -0.1867,0.872 -0.4637,1.1172 -0.1825,0.1617 -0.4017,0.2647 -0.6306,0.3085 -0.2261,0.0432 -0.4641,0.0292 -0.6874,-0.0422 -0.3593,-0.1151 -0.6792,-0.3778 -0.8501,-0.7882 -0.1086,-0.2604 -0.0999,-0.5707 -0.093,-0.8241l0 -0.0013c0.0018,-0.0636 0.0034,-0.1232 0.0027,-0.1679l0 -0.0014c-0.0054,-0.4212 0.0793,-1.1092 0.136,-1.5705l0.025 -0.2039c0.0557,-0.4679 0.1839,-1.1447 0.3398,-1.814 0.1453,-0.6241 0.3175,-1.2502 0.4804,-1.7021 0.3696,-1.0283 0.7128,-1.8878 1.1234,-2.7121 0.4141,-0.8312 0.899,-1.6339 1.5504,-2.5449 0.3981,-0.557 0.6391,-0.8273 0.9054,-1.1261zm5.1185 10.3447c-0.0375,0.2241 -0.0626,0.415 -0.0542,0.4769l0.0273 0.2012 -0.0601 0.0467 -0.0031 0.04c-0.0035,0.0467 -0.0067,0.0912 -0.0178,0.1575 -0.0707,0.4246 -0.3055,0.7364 -0.61,0.9263 -0.2023,0.1261 -0.4366,0.1969 -0.6732,0.2094 -0.2371,0.0124 -0.4778,-0.0336 -0.6925,-0.1405 -0.3176,-0.1582 -0.5786,-0.4449 -0.6919,-0.8664 -0.0539,-0.1999 -0.0482,-0.4961 -0.0196,-0.7907 0.026,-0.2696 0.0713,-0.5439 0.1043,-0.7263 0.13,-0.7155 0.2986,-1.4352 0.5189,-2.1343 0.2231,-0.7083 0.5005,-1.4028 0.846,-2.0604 0.8325,-1.5853 1.904,-2.8766 3.1911,-3.8489 1.2825,-0.9687 2.7781,-1.6193 4.4633,-1.9268 0.3065,-0.0557 0.7161,-0.1159 1.1179,-0.1605 0.347,-0.0386 0.7,-0.0672 0.9937,-0.0738 0.2909,-0.0067 0.5558,0.0635 0.7776,0.188 0.2076,0.1163 0.3785,0.2814 0.4997,0.4768 0.1217,0.1962 0.1921,0.4233 0.1975,0.6631 0.0052,0.2352 -0.0517,0.4795 -0.1834,0.7143 -0.3775,0.6733 -0.9769,0.6912 -1.3654,0.7026 -0.0675,0.0019 -0.0593,-0.0339 -0.0901,-0.0152l-0.141 0.0855 -0.1539 -0.0524c-0.0129,-0.0044 -0.1559,0.0108 -0.3401,0.0331 -0.3924,0.0474 -0.8762,0.138 -0.9854,0.1607 -0.2475,0.0527 -0.4852,0.113 -0.7231,0.1842 -0.2415,0.0722 -0.4789,0.1541 -0.7221,0.2488 -1.0678,0.4159 -1.9565,1.0458 -2.6874,1.8295 -0.8055,0.8638 -1.4216,1.9172 -1.8759,3.0801 -0.2079,0.5321 -0.2645,0.7458 -0.3635,1.1205l-0.0925 0.3426c-0.0492,0.1793 -0.1337,0.5649 -0.1911,0.9084z"/>
  <path class="fil1" d="M64.0525 61.021c-0.1576,0.1768 -0.3244,0.364 -0.5195,0.6036 -0.1931,0.2371 -0.448,0.5003 -0.7173,0.7577 -0.3579,0.342 -0.7423,0.6758 -1.0401,0.9252 -0.7693,0.6434 -1.6028,1.2326 -2.4724,1.7604 -0.9037,0.5484 -1.8404,1.0266 -2.7797,1.4272 -0.8952,0.3826 -2.0081,0.7769 -3.1279,1.1063 -1.0469,0.3078 -2.1007,0.5596 -2.9903,0.6929 -0.0894,0.0136 -0.1495,0.0257 -0.2091,0.0377 -0.2479,0.0497 -0.5048,0.1015 -0.7629,0.0465 -0.4523,-0.0967 -0.7758,-0.3675 -0.9559,-0.7034 -0.1105,-0.2064 -0.1657,-0.4373 -0.1624,-0.6673 0.0033,-0.2327 0.0664,-0.4655 0.1916,-0.6722 0.1951,-0.3219 0.5357,-0.5773 1.0296,-0.6652l1.7295 -0.3441c0.3467,-0.0727 0.8359,-0.1969 1.3142,-0.3306 0.4581,-0.128 0.906,-0.265 1.2077,-0.3741 1.2408,-0.4487 2.4397,-0.9519 3.576,-1.5761 1.1289,-0.6201 2.1961,-1.3604 3.181,-2.2868 1.4057,-1.3222 2.4979,-2.7261 3.327,-4.2584 0.8299,-1.5337 1.3983,-3.1994 1.7557,-5.0435 0.0781,-0.4033 0.1463,-0.8634 0.1935,-1.3147 0.0444,-0.4249 0.0709,-0.8414 0.0705,-1.1947 -0.0006,-0.4977 0.1866,-0.8719 0.4636,-1.1171 0.1826,-0.1615 0.4017,-0.2646 0.6306,-0.3084 0.2261,-0.0432 0.4642,-0.0292 0.6873,0.0422 0.3594,0.115 0.6792,0.3776 0.8502,0.7882 0.1087,0.2606 0.1,0.5719 0.093,0.826 -0.0018,0.0634 -0.0034,0.1228 -0.0027,0.1672l0 0.0014c0.0055,0.4218 -0.0795,1.1117 -0.1363,1.5731l-0.0247 0.2013c-0.0555,0.4676 -0.1837,1.144 -0.3395,1.813 -0.1453,0.6244 -0.3178,1.2509 -0.4806,1.7029 -0.3697,1.0284 -0.7129,1.8879 -1.1235,2.7122 -0.4141,0.8312 -0.899,1.6339 -1.5503,2.545 -0.3983,0.5572 -0.6393,0.8276 -0.9059,1.1266zm-5.1181 -10.3453c0.0375,-0.2242 0.0626,-0.415 0.0543,-0.4768l-0.0234 -0.1737 0.0545 -0.0544 0.0049 -0.0628c0.0033,-0.0442 0.0067,-0.0872 0.0176,-0.1531 0.0703,-0.4252 0.3052,-0.7376 0.6101,-0.9277 0.2023,-0.1261 0.4366,-0.1969 0.6732,-0.2094 0.2371,-0.0125 0.4778,0.0336 0.6925,0.1405 0.3177,0.1583 0.5785,0.4449 0.6918,0.8663 0.0539,0.1999 0.0482,0.4961 0.0196,0.7907 -0.026,0.2696 -0.0713,0.544 -0.1042,0.7264 -0.13,0.7155 -0.2986,1.4352 -0.5189,2.1343 -0.2231,0.7083 -0.5005,1.4027 -0.846,2.0604 -0.8326,1.5854 -1.9042,2.8768 -3.1913,3.849 -1.2825,0.9688 -2.7781,1.6192 -4.4633,1.9267 -0.3064,0.0557 -0.716,0.1159 -1.1178,0.1605 -0.347,0.0386 -0.7,0.0672 -0.9936,0.0738 -0.2909,0.0067 -0.5557,-0.0635 -0.7777,-0.188 -0.2073,-0.1163 -0.3785,-0.2814 -0.4997,-0.4769 -0.1216,-0.1961 -0.192,-0.4232 -0.1974,-0.663 -0.0054,-0.2352 0.0516,-0.4794 0.1833,-0.7142 0.3775,-0.6735 0.9767,-0.6912 1.3654,-0.7026 0.0673,-0.0019 0.0593,0.0339 0.0901,0.0152l0.1407 -0.0856 0.1542 0.0525c0.0129,0.0044 0.1564,-0.011 0.341,-0.0333 0.3935,-0.0476 0.8791,-0.1386 0.9857,-0.161 0.2447,-0.0517 0.4819,-0.112 0.7218,-0.1837 0.2373,-0.071 0.4743,-0.1529 0.7207,-0.249l0.0014 0c1.0677,-0.4159 1.9566,-1.0456 2.6875,-1.8294 0.8055,-0.8637 1.4215,-1.917 1.8759,-3.08 0.2078,-0.5318 0.2644,-0.7457 0.3634,-1.1199l0.0926 -0.3433c0.0491,-0.1793 0.1337,-0.5649 0.1911,-0.9085z"/>
 </g>
</svg>
