<?xml version="1.0" encoding="UTF-8"?>
<!DOCTYPE svg PUBLIC "-//W3C//DTD SVG 1.1//EN" "http://www.w3.org/Graphics/SVG/1.1/DTD/svg11.dtd">
<!-- Creator: CorelDRAW -->
<svg xmlns="http://www.w3.org/2000/svg" xml:space="preserve" width="71.9666mm" height="38.0998mm" version="1.1" style="shape-rendering:geometricPrecision; text-rendering:geometricPrecision; image-rendering:optimizeQuality; fill-rule:evenodd; clip-rule:evenodd"
viewBox="0 0 71.9666 38.0998"
 xmlns:xlink="http://www.w3.org/1999/xlink"
 xmlns:xodm="http://www.corel.com/coreldraw/odm/2003">
 <defs>
  <style type="text/css">
   <![CDATA[
    .str0 {stroke:#F09A37;stroke-width:0.3528;stroke-miterlimit:10}
    .fil1 {fill:none;fill-rule:nonzero}
    .fil0 {fill:#FEFEFE;fill-rule:nonzero}
    .fil4 {fill:#E9363A;fill-rule:nonzero}
    .fil2 {fill:#F09A37;fill-rule:nonzero}
    .fil3 {fill:#30A180;fill-rule:nonzero}
    @media (prefers-color-scheme: light) { .fil0 {fill:#222222;fill-rule:nonzero} }
   ]]>
  </style>
 </defs>
 <g id="Capa_x0020_1">
  <metadata id="CorelCorpID_0Corel-Layer"/>
  <g id="_2021161360576">
   <polygon class="fil0" points="12.8276,2.1296 8.3484,12.5809 5.437,12.5809 0.9729,2.1296 4.168,2.1296 7.0047,8.9379 9.9012,2.1296 "/>
   <polygon class="fil0" points="14.1855,2.1296 17.1416,2.1296 17.1416,12.5808 14.1855,12.5808 "/>
   <polygon class="fil0" points="19.993,2.1296 22.9491,2.1296 22.9491,12.5808 19.993,12.5808 "/>
   <polygon class="fil0" points="25.8004,2.1296 28.7566,2.1296 28.7566,12.5808 25.8004,12.5808 "/>
   <path class="fil0" d="M32.269 6.4896l0.5922 -0.7018c0.2028,0.2631 0.4167,0.4001 0.6633,0.4001 0.3124,0 0.4824,-0.1917 0.4824,-0.5592l0 -1.6501 -1.3267 0 0 -0.8388 2.4014 0 0 2.4232c0,0.9977 -0.5154,1.4913 -1.4803,1.4913 -0.5592,0 -1.0362,-0.1975 -1.3323,-0.5647z"/>
   <path class="fil0" d="M36.0572 5.267l0 -2.1273 1.0854 0 0 2.0943c0,0.658 0.2742,0.9211 0.7292,0.9211 0.4496,0 0.7237,-0.2631 0.7237,-0.9211l0 -2.0943 1.0691 0 0 2.1273c0,1.1457 -0.6689,1.7873 -1.8037,1.7873 -1.1349,0 -1.8037,-0.6416 -1.8037,-1.7873z"/>
   <polygon class="fil0" points="43.7543,6.1387 43.7543,6.9775 40.6731,6.9775 40.6731,3.1397 43.6831,3.1397 43.6831,3.9785 41.7478,3.9785 41.7478,4.6255 43.4528,4.6255 43.4528,5.437 41.7478,5.437 41.7478,6.1387 "/>
   <path class="fil0" d="M47.1971 4.9764l0.9594 0 0 1.5899c-0.444,0.318 -1.0526,0.488 -1.6118,0.488 -1.2225,0 -2.1162,-0.828 -2.1162,-1.9958 0,-1.1676 0.8937,-1.9955 2.1382,-1.9955 0.7181,0 1.2993,0.2468 1.6776,0.7018l-0.6908 0.625c-0.2631,-0.2906 -0.5646,-0.4277 -0.932,-0.4277 -0.6579,0 -1.0965,0.4332 -1.0965,1.0964 0,0.647 0.4386,1.0966 1.0855,1.0966 0.2029,0 0.3948,-0.0383 0.5866,-0.1261l0 -1.0526z"/>
   <path class="fil0" d="M52.0926 5.0585c0,-0.6632 -0.455,-1.0964 -1.0361,-1.0964 -0.5813,0 -1.0363,0.4332 -1.0363,1.0964 0,0.6635 0.455,1.0966 1.0363,1.0966 0.5811,0 1.0361,-0.4331 1.0361,-1.0966zm-3.169 0c0,-1.1512 0.9048,-1.9955 2.1329,-1.9955 1.228,0 2.1326,0.8443 2.1326,1.9955 0,1.1514 -0.9046,1.9958 -2.1326,1.9958 -1.2281,0 -2.1329,-0.8444 -2.1329,-1.9958z"/>
   <path class="fil0" d="M53.7646 6.632l0.3564 -0.8004c0.3397,0.2248 0.8223,0.3783 1.2663,0.3783 0.4496,0 0.6251,-0.1261 0.6251,-0.3125 0,-0.6085 -2.1822,-0.1645 -2.1822,-1.59 0,-0.6853 0.5593,-1.2443 1.6996,-1.2443 0.499,0 1.0144,0.115 1.3927,0.3343l-0.3345 0.806c-0.3673,-0.1975 -0.7292,-0.296 -1.0636,-0.296 -0.455,0 -0.6195,0.1534 -0.6195,0.3452 0,0.5868 2.1765,0.1481 2.1765,1.5626 0,0.6689 -0.5591,1.239 -1.6995,1.239 -0.6305,0 -1.2556,-0.17 -1.6173,-0.4222z"/>
   <polygon class="fil0" points="32.9543,9.4286 33.5026,9.4286 33.5026,13.2664 32.9543,13.2664 "/>
   <polygon class="fil0" points="38.2284,9.4286 38.2284,13.2663 37.7788,13.2663 35.4761,10.4045 35.4761,13.2663 34.9278,13.2663 34.9278,9.4286 35.3775,9.4286 37.6801,12.2904 37.6801,9.4286 "/>
   <polygon class="fil0" points="40.4155,9.9056 39.0997,9.9056 39.0997,9.4286 42.2742,9.4286 42.2742,9.9056 40.9583,9.9056 40.9583,13.2663 40.4155,13.2663 "/>
   <polygon class="fil0" points="45.9306,12.7894 45.9306,13.2664 43.1455,13.2664 43.1455,9.4286 45.8539,9.4286 45.8539,9.9055 43.6938,9.9055 43.6938,11.0842 45.6181,11.0842 45.6181,11.5503 43.6938,11.5503 43.6938,12.7894 "/>
   <path class="fil0" d="M49.6422 10.7663c0,-0.5483 -0.3674,-0.8607 -1.0692,-0.8607l-0.9319 0 0 1.7269 0.9319 0c0.7018,0 1.0692,-0.3179 1.0692,-0.8662zm0.0164 2.5001l-0.828 -1.1788c-0.0767,0.0055 -0.1589,0.0109 -0.2411,0.0109l-0.9484 0 0 1.1679 -0.5483 0 0 -3.8377 1.4967 0c0.9978,0 1.6009,0.5043 1.6009,1.3376 0,0.5922 -0.3071,1.0198 -0.8443,1.2117l0.91 1.2884 -0.5975 0z"/>
   <path class="fil0" d="M51.0014 12.8278l0.2028 -0.4278c0.2851,0.2578 0.7731,0.4442 1.2666,0.4442 0.6633,0 0.9484,-0.2576 0.9484,-0.592 0,-0.9376 -2.3245,-0.3455 -2.3245,-1.7709 0,-0.5922 0.4605,-1.0965 1.4692,-1.0965 0.4495,0 0.9156,0.1206 1.2337,0.3399l-0.1811 0.4385c-0.3344,-0.2138 -0.7126,-0.3124 -1.0526,-0.3124 -0.6525,0 -0.932,0.2741 -0.932,0.6085 0,0.9375 2.3246,0.3509 2.3246,1.7598 0,0.5868 -0.4715,1.0912 -1.4857,1.0912 -0.5867,0 -1.1624,-0.1975 -1.4694,-0.4825z"/>
   <polygon class="fil0" points="57.8159,12.7894 57.8159,13.2664 55.0308,13.2664 55.0308,9.4286 57.7392,9.4286 57.7392,9.9055 55.5791,9.9055 55.5791,11.0842 57.5034,11.0842 57.5034,11.5503 55.5791,11.5503 55.5791,12.7894 "/>
   <path class="fil0" d="M60.5623 12.7894c0.9485,0 1.557,-0.5811 1.557,-1.442 0,-0.8607 -0.6085,-1.4419 -1.557,-1.4419l-1.0361 0 0 2.8839 1.0361 0zm-1.5843 -3.3608l1.6173 0c1.2335,0 2.0723,0.7785 2.0723,1.9188 0,1.1404 -0.8388,1.919 -2.0723,1.919l-1.6173 0 0 -3.8378z"/>
   <polygon class="fil0" points="66.5654,12.7894 66.5654,13.2664 63.7803,13.2664 63.7803,9.4286 66.4886,9.4286 66.4886,9.9055 64.3285,9.9055 64.3285,11.0842 66.2529,11.0842 66.2529,11.5503 64.3285,11.5503 64.3285,12.7894 "/>
   <path class="fil0" d="M67.3765 12.8278l0.2028 -0.4278c0.2851,0.2578 0.7731,0.4442 1.2665,0.4442 0.6633,0 0.9485,-0.2576 0.9485,-0.592 0,-0.9376 -2.3245,-0.3455 -2.3245,-1.7709 0,-0.5922 0.4604,-1.0965 1.4692,-1.0965 0.4495,0 0.9156,0.1206 1.2336,0.3399l-0.181 0.4385c-0.3344,-0.2138 -0.7127,-0.3124 -1.0526,-0.3124 -0.6525,0 -0.932,0.2741 -0.932,0.6085 0,0.9375 2.3246,0.3509 2.3246,1.7598 0,0.5868 -0.4716,1.0912 -1.4858,1.0912 -0.5867,0 -1.1623,-0.1975 -1.4693,-0.4825z"/>
   <g>
    <path class="fil1 str0" d="M70.8 27.4097l-68.8948 0 0 -6.19c0,-0.9855 0.7971,-1.7843 1.7804,-1.7843l65.3341 0c0.9833,0 1.7803,0.7988 1.7803,1.7843l0 6.19z"/>
    <polygon class="fil2" points="70.9937,35.9702 1.6996,35.9702 1.6996,27.1886 70.9937,27.1886 "/>
    <path class="fil0" d="M5.2804 22.4722c0,0.1327 -0.0952,0.2239 -0.2156,0.2239 -0.1326,0 -0.2197,-0.0995 -0.2197,-0.2239 0,-0.0664 0.0125,-0.1161 0.054,-0.2363l0.1741 -0.5721 0.1989 0 -0.1409 0.597c0.0912,0.029 0.1492,0.1077 0.1492,0.2114zm-0.7047 0c0,0.1327 -0.0954,0.2239 -0.2156,0.2239 -0.1326,0 -0.2197,-0.0995 -0.2197,-0.2239 0,-0.0664 0.0125,-0.1161 0.0539,-0.2363l0.1741 -0.5721 0.199 0 -0.1409 0.597c0.0912,0.029 0.1492,0.1077 0.1492,0.2114z"/>
    <path class="fil0" d="M5.4754 24.3502l0.1825 -0.2074c0.1574,0.2322 0.3688,0.3566 0.6259,0.3566 0.3565,0 0.5389,-0.2114 0.5389,-0.6385l0 -1.7576 -1.0612 0 0 -0.2654 1.3639 0 0 2.0105c0,0.6137 -0.2902,0.9163 -0.8457,0.9163 -0.3275,0 -0.6261,-0.1493 -0.8043,-0.4145z"/>
    <path class="fil0" d="M8.021 23.5002l0 -1.6623 0.3067 0 0 1.65c0,0.6881 0.3234,1.0032 0.8872,1.0032 0.568,0 0.8913,-0.3151 0.8913,-1.0032l0 -1.65 0.2985 0 0 1.6623c0,0.8333 -0.4477,1.2645 -1.1898,1.2645 -0.742,0 -1.1939,-0.4312 -1.1939,-1.2645z"/>
    <polygon class="fil0" points="13.3816,24.4745 13.3816,24.7398 11.3295,24.7398 11.3295,21.8379 13.3194,21.8379 13.3194,22.1032 11.6363,22.1032 11.6363,23.1355 13.137,23.1355 13.137,23.3967 11.6363,23.3967 11.6363,24.4745 "/>
    <path class="fil0" d="M16.1304 23.2889l0.2943 0 0 1.1068c-0.2736,0.2446 -0.6633,0.369 -1.0654,0.369 -0.883,0 -1.5297,-0.626 -1.5297,-1.4758 0,-0.8499 0.6467,-1.4758 1.5339,-1.4758 0.4394,0 0.8208,0.1409 1.0778,0.4186l-0.1906 0.1948c-0.2447,-0.2404 -0.5349,-0.3399 -0.8748,-0.3399 -0.7171,0 -1.2437,0.5099 -1.2437,1.2023 0,0.6881 0.5266,1.2022 1.2395,1.2022 0.2778,0 0.5348,-0.0623 0.7587,-0.2239l0 -0.9783z"/>
    <path class="fil0" d="M19.7747 23.2889c0,-0.6924 -0.5182,-1.2023 -1.2146,-1.2023 -0.7007,0 -1.223,0.5099 -1.223,1.2023 0,0.6923 0.5223,1.2022 1.223,1.2022 0.6964,0 1.2146,-0.5099 1.2146,-1.2022zm-2.7402 0c0,-0.8458 0.6467,-1.4758 1.5256,-1.4758 0.8705,0 1.5214,0.6259 1.5214,1.4758 0,0.8498 -0.6509,1.4758 -1.5214,1.4758 -0.8789,0 -1.5256,-0.6301 -1.5256,-1.4758z"/>
    <path class="fil0" d="M20.4922 24.3875l0.1203 -0.2364c0.2073,0.2032 0.5762,0.3524 0.9576,0.3524 0.5431,0 0.7793,-0.2279 0.7793,-0.5139 0,-0.796 -1.7867,-0.3068 -1.7867,-1.3806 0,-0.427 0.3317,-0.796 1.0695,-0.796 0.3276,0 0.6675,0.0954 0.8996,0.2571l-0.1036 0.2445c-0.2487,-0.1616 -0.5389,-0.2403 -0.796,-0.2403 -0.5305,0 -0.7669,0.2362 -0.7669,0.5264 0,0.7959 1.7867,0.3151 1.7867,1.3721 0,0.427 -0.3399,0.792 -1.0819,0.792 -0.4352,0 -0.8623,-0.1534 -1.0779,-0.3773z"/>
    <path class="fil0" d="M25.5709 24.4745c0.7711,0 1.2685,-0.4891 1.2685,-1.1856 0,-0.6965 -0.4974,-1.1857 -1.2685,-1.1857l-0.8582 0 0 2.3713 0.8582 0zm-1.165 -2.6366l1.1816 0c0.9286,0 1.5545,0.5971 1.5545,1.451 0,0.8539 -0.6259,1.4509 -1.5545,1.4509l-1.1816 0 0 -2.9019z"/>
    <polygon class="fil0" points="29.8826,24.4745 29.8826,24.7398 27.8305,24.7398 27.8305,21.8379 29.8204,21.8379 29.8204,22.1032 28.1373,22.1032 28.1373,23.1355 29.638,23.1355 29.638,23.3967 28.1373,23.3967 28.1373,24.4745 "/>
    <polygon class="fil0" points="30.6042,21.8379 30.911,21.8379 30.911,24.4745 32.536,24.4745 32.536,24.7398 30.6042,24.7398 "/>
    <path class="fil0" d="M36.0974 22.8329c0,-0.4643 -0.3068,-0.7296 -0.8871,-0.7296l-0.7711 0 0 1.4549 0.7711 0c0.5803,0 0.8871,-0.2693 0.8871,-0.7253zm0.0166 1.9069l-0.6633 -0.9328c-0.0746,0.0084 -0.1492,0.0125 -0.2321,0.0125l-0.7794 0 0 0.9203 -0.3068 0 0 -2.9019 1.0862 0c0.7379,0 1.1856,0.3731 1.1856,0.995 0,0.456 -0.2404,0.7752 -0.6633,0.912l0.7089 0.9949 -0.3358 0z"/>
    <polygon class="fil0" points="39.1821,24.4745 39.1821,24.7398 37.13,24.7398 37.13,21.8379 39.1199,21.8379 39.1199,22.1032 37.4368,22.1032 37.4368,23.1355 38.9374,23.1355 38.9374,23.3967 37.4368,23.3967 37.4368,24.4745 "/>
    <polygon class="fil0" points="41.9557,24.4745 41.9557,24.7398 39.9036,24.7398 39.9036,21.8379 41.8936,21.8379 41.8936,22.1032 40.2104,22.1032 40.2104,23.1355 41.7111,23.1355 41.7111,23.3967 40.2104,23.3967 40.2104,24.4745 "/>
    <polygon class="fil0" points="45.1024,21.8379 45.1024,24.7398 44.8495,24.7398 42.9841,22.3851 42.9841,24.7398 42.6773,24.7398 42.6773,21.8379 42.9302,21.8379 44.7998,24.1926 44.7998,21.8379 "/>
    <path class="fil0" d="M45.791 23.2889c0,-0.8499 0.6466,-1.4758 1.5213,-1.4758 0.423,0 0.8044,0.1409 1.0614,0.4228l-0.1949 0.1949c-0.2363,-0.2405 -0.5266,-0.3442 -0.8581,-0.3442 -0.7006,0 -1.2271,0.5141 -1.2271,1.2023 0,0.6881 0.5265,1.2022 1.2271,1.2022 0.3315,0 0.6218,-0.1036 0.8581,-0.3483l0.1949 0.1949c-0.257,0.2819 -0.6384,0.427 -1.0654,0.427 -0.8707,0 -1.5173,-0.626 -1.5173,-1.4758z"/>
    <path class="fil0" d="M48.9957 23.5002l0 -1.6623 0.3069 0 0 1.65c0,0.6881 0.3234,1.0032 0.887,1.0032 0.5681,0 0.8913,-0.3151 0.8913,-1.0032l0 -1.65 0.2987 0 0 1.6623c0,0.8333 -0.4479,1.2645 -1.19,1.2645 -0.7418,0 -1.1939,-0.4312 -1.1939,-1.2645z"/>
    <polygon class="fil0" points="54.3564,24.4745 54.3564,24.7398 52.3043,24.7398 52.3043,21.8379 54.2943,21.8379 54.2943,22.1032 52.6111,22.1032 52.6111,23.1355 54.1118,23.1355 54.1118,23.3967 52.6111,23.3967 52.6111,24.4745 "/>
    <polygon class="fil0" points="57.5031,21.8379 57.5031,24.7398 57.2502,24.7398 55.3848,22.3851 55.3848,24.7398 55.078,24.7398 55.078,21.8379 55.3309,21.8379 57.2005,24.1926 57.2005,21.8379 "/>
    <polygon class="fil0" points="59.0124,22.1032 57.9926,22.1032 57.9926,21.8379 60.339,21.8379 60.339,22.1032 59.3192,22.1032 59.3192,24.7399 59.0124,24.7399 "/>
    <path class="fil0" d="M62.7934 22.8329c0,-0.4643 -0.3067,-0.7296 -0.8872,-0.7296l-0.7711 0 0 1.4549 0.7711 0c0.5805,0 0.8872,-0.2693 0.8872,-0.7253zm0.0167 1.9069l-0.6634 -0.9328c-0.0747,0.0084 -0.1493,0.0125 -0.2321,0.0125l-0.7795 0 0 0.9203 -0.3066 0 0 -2.9019 1.0861 0c0.7379,0 1.1855,0.3731 1.1855,0.995 0,0.456 -0.2403,0.7752 -0.6632,0.912l0.7089 0.9949 -0.3357 0z"/>
    <path class="fil0" d="M66.3092 23.2889c0,-0.6924 -0.5182,-1.2023 -1.2146,-1.2023 -0.7007,0 -1.223,0.5099 -1.223,1.2023 0,0.6923 0.5223,1.2022 1.223,1.2022 0.6964,0 1.2146,-0.5099 1.2146,-1.2022zm-2.7402 0c0,-0.8458 0.6467,-1.4758 1.5256,-1.4758 0.8706,0 1.5214,0.6259 1.5214,1.4758 0,0.8498 -0.6508,1.4758 -1.5214,1.4758 -0.8789,0 -1.5256,-0.6301 -1.5256,-1.4758z"/>
    <path class="fil0" d="M68.1378 21.867c0,0.0704 -0.0166,0.1202 -0.0539,0.2362l-0.1783 0.5721 -0.1989 0 0.1451 -0.597c-0.0913,-0.029 -0.1534,-0.1036 -0.1534,-0.2113 0,-0.1326 0.0953,-0.224 0.2196,-0.224 0.1286,0 0.2198,0.0995 0.2198,0.224zm-0.7047 0c0,0.0704 -0.0166,0.1202 -0.054,0.2362l-0.1782 0.5721 -0.1989 0 0.1449 -0.597c-0.0911,-0.029 -0.1534,-0.1036 -0.1534,-0.2113 0,-0.1326 0.0954,-0.224 0.2199,-0.224 0.1285,0 0.2197,0.0995 0.2197,0.224z"/>
    <polygon class="fil0" points="21.3688,30.1426 20.1015,30.1426 20.1015,29.2171 23.7972,29.2171 23.7972,30.1426 22.5358,30.1426 22.5358,33.3433 21.3688,33.3433 "/>
    <path class="fil0" d="M24.4282 31.5042l0 -2.287 1.167 0 0 2.2517c0,0.7073 0.2947,0.9902 0.784,0.9902 0.4833,0 0.778,-0.2829 0.778,-0.9902l0 -2.2517 1.1494 0 0 2.287c0,1.232 -0.7191,1.9215 -1.9392,1.9215 -1.2202,0 -1.9392,-0.6895 -1.9392,-1.9215z"/>
    <polygon class="fil0" points="29.3913,29.2172 30.5583,29.2172 30.5583,32.4179 32.5271,32.4179 32.5271,33.3432 29.3913,33.3432 "/>
    <path class="fil0" d="M33.205 31.5042l0 -2.287 1.1671 0 0 2.2517c0,0.7073 0.2947,0.9902 0.7839,0.9902 0.4834,0 0.7781,-0.2829 0.7781,-0.9902l0 -2.2517 1.1493 0 0 2.287c0,1.232 -0.719,1.9215 -1.9391,1.9215 -1.2202,0 -1.9393,-0.6895 -1.9393,-1.9215z"/>
    <path class="fil0" d="M40.5023 31.681l-0.5306 -1.3203 -0.5303 1.3203 1.0609 0zm-0.2947 -2.7998l-0.8017 0 0.7899 -0.8958 1.1199 0 -1.1081 0.8958zm0.6366 3.6604l-1.7447 0 -0.3243 0.8017 -1.1906 0 1.8213 -4.1262 1.1494 0 1.8273 4.1262 -1.2143 0 -0.3241 -0.8017z"/>
    <path class="fil0" d="M47.994 32.4179l0 0.9253 -3.2124 0 0 -0.7309 1.5444 -1.444c0.33,-0.3065 0.3773,-0.4951 0.3773,-0.6661 0,-0.2653 -0.1769,-0.4245 -0.5306,-0.4245 -0.3006,0 -0.5717,0.1356 -0.7368,0.4009l-0.8664 -0.4833c0.3124,-0.5187 0.896,-0.8607 1.7092,-0.8607 0.949,0 1.6034,0.4893 1.6034,1.2556 0,0.4008 -0.1121,0.7662 -0.7015,1.3085l-0.778 0.7192 1.5914 0z"/>
    <path class="fil0" d="M51.0887 31.2803c0,-0.8666 -0.2712,-1.1907 -0.6425,-1.1907 -0.3773,0 -0.6484,0.3241 -0.6484,1.1907 0,0.8664 0.2711,1.1906 0.6484,1.1906 0.3713,0 0.6425,-0.3242 0.6425,-1.1906zm-2.4639 0c0,-1.3617 0.7663,-2.1456 1.8214,-2.1456 1.0492,0 1.8155,0.7839 1.8155,2.1456 0,1.3616 -0.7663,2.1454 -1.8155,2.1454 -1.0551,0 -1.8214,-0.7838 -1.8214,-2.1454z"/>
    <path class="fil0" d="M56.099 32.4179l0 0.9253 -3.2124 0 0 -0.7309 1.5444 -1.444c0.33,-0.3065 0.3773,-0.4951 0.3773,-0.6661 0,-0.2653 -0.1769,-0.4245 -0.5306,-0.4245 -0.3006,0 -0.5717,0.1356 -0.7368,0.4009l-0.8664 -0.4833c0.3124,-0.5187 0.896,-0.8607 1.7092,-0.8607 0.949,0 1.6034,0.4893 1.6034,1.2556 0,0.4008 -0.1121,0.7662 -0.7015,1.3085l-0.778 0.7192 1.5914 0z"/>
    <path class="fil0" d="M59.9128 32.0524c0,0.7014 -0.5541,1.3733 -1.7977,1.3733 -0.5718,0 -1.179,-0.1414 -1.6032,-0.4067l0.4242 -0.8783c0.3302,0.2241 0.7546,0.3419 1.1436,0.3419 0.3949,0 0.6542,-0.1532 0.6542,-0.4302 0,-0.2475 -0.1828,-0.4008 -0.6306,-0.4008l-0.4893 0 0 -0.7369 0.7367 -0.7957 -1.6267 0 0 -0.9018 2.9826 0 0 0.731 -0.8547 0.9195c0.6955,0.1473 1.0609,0.5953 1.0609,1.1847z"/>
    <path class="fil3" d="M17.9718 30.1209c0.0573,0.1281 0.0748,0.2645 0.0818,0.4025 0.011,0.2148 -0.0276,0.4188 -0.1445,0.6026 -0.109,0.1713 -0.2388,0.3231 -0.4217,0.4213 -0.0176,-0.0006 -0.0353,-0.0018 -0.053,-0.0018 -1.0598,0 -2.1196,0 -3.1795,0.0002 -0.0241,0 -0.0481,0.0017 -0.0721,0.0027 -0.1021,-0.1904 -0.1738,-0.3924 -0.2246,-0.6017 -0.0532,-0.2192 -0.0757,-0.4424 -0.0688,-0.6679 0.0015,-0.0527 0.0097,-0.1051 0.0148,-0.1576 0.7736,-0.0003 1.5473,-0.0008 2.3209,-0.0009 0.5823,-0.0001 1.1645,0.0003 1.7467,0.0006z"/>
    <path class="fil4" d="M17.9718 30.1209c-0.5822,-0.0003 -1.1644,-0.0007 -1.7467,-0.0006 -0.7736,0.0001 -1.5473,0.0006 -2.3209,0.0009 0.0113,-0.3475 0.1304,-0.652 0.3711,-0.9039 0.2597,-0.2717 0.5772,-0.4189 0.957,-0.4099 0.269,0.0063 0.4911,0.1265 0.6831,0.3077 0.1176,0.1111 0.2154,0.2384 0.2913,0.3816 0.0158,0.0298 0.0278,0.0327 0.0579,0.0167 0.1851,-0.0983 0.3814,-0.1618 0.5916,-0.1766 0.185,-0.0132 0.3641,0.0122 0.5317,0.0956 0.2049,0.1021 0.3589,0.2588 0.4758,0.4532 0.0447,0.0743 0.0872,0.15 0.1081,0.2353z"/>
    <path class="fil0" d="M14.1827 31.5484c0.0241,-0.001 0.0482,-0.0027 0.0723,-0.0027 1.0598,-0.0002 2.1196,-0.0003 3.1795,-0.0003 0.0177,0 0.0354,0.0013 0.0529,0.0019 -0.1119,0.0793 -0.2389,0.1224 -0.3703,0.1554 -0.2746,0.0687 -0.5361,0.1694 -0.7712,0.3297 -0.3556,0.2423 -0.5911,0.5663 -0.6669,0.9965 -0.0017,0.0095 -0.0033,0.019 -0.0043,0.0286 -0.0085,0.0823 -0.0091,0.0834 -0.076,0.0378 -0.5636,-0.383 -1.0356,-0.8525 -1.3697,-1.452 -0.0172,-0.0306 -0.031,-0.0632 -0.0463,-0.0949z"/>
    <path class="fil0" d="M18.1452 29.5813c-0.0167,-0.0242 -0.0326,-0.0472 -0.0487,-0.07 -0.1977,-0.2821 -0.4618,-0.4611 -0.8051,-0.5154 -0.2098,-0.0333 -0.4168,-0.0129 -0.6216,0.0385 -0.0999,0.025 -0.1993,0.0528 -0.2921,0.0981 -0.0356,0.0173 -0.0538,0.0129 -0.0781,-0.02 -0.1833,-0.2494 -0.4121,-0.4459 -0.6953,-0.5739 -0.3976,-0.1797 -0.7921,-0.1577 -1.1687,0.0517 -0.5314,0.2956 -0.7871,0.7675 -0.8248,1.3641 -0.0529,0.8386 0.2035,1.5883 0.6679,2.2755 0.3782,0.5597 0.8556,1.0211 1.4065,1.4089 0.0013,0.001 0.0026,0.0019 0.0039,0.0028 0.0903,0.063 0.0901,0.0628 0.1822,-0.0032 0.0741,-0.0529 0.1487,-0.1049 0.2294,-0.1618 0.0015,0.0286 -0.0146,0.0353 -0.0254,0.0441 -0.0828,0.069 -0.1674,0.1358 -0.2487,0.2065 -0.0316,0.0275 -0.0561,0.0298 -0.0928,0.0091 -0.253,-0.1422 -0.4904,-0.3073 -0.7161,-0.4892 -0.4281,-0.3452 -0.795,-0.7447 -1.0763,-1.2195 -0.1473,-0.2487 -0.2639,-0.5109 -0.3485,-0.7876 -0.1368,-0.4475 -0.1801,-0.9052 -0.1259,-1.3683 0.0724,-0.6177 0.3626,-1.1041 0.9257,-1.3929 0.5438,-0.2789 1.0641,-0.2039 1.5491,0.1565 0.1506,0.1119 0.2831,0.2428 0.3922,0.3959 0.021,0.0293 0.0399,0.0237 0.0652,0.0143 0.1745,-0.0647 0.3546,-0.1046 0.5404,-0.1169 0.2421,-0.0161 0.4749,0.0198 0.6932,0.1301 0.2195,0.111 0.3852,0.2791 0.5116,0.4881 0.005,0.0087 0.0163,0.0171 0.0008,0.0345z"/>
   </g>
  </g>
 </g>
</svg>
